<svg width="18" height="18" viewBox="0 0 18 18" fill="none" xmlns="http://www.w3.org/2000/svg">
<g clip-path="url(#clip0_1228_23828)">
<path d="M11.4 17.4H10.8C10.8 17.5114 10.831 17.6206 10.8896 17.7154C10.9482 17.8102 11.032 17.8868 11.1317 17.9366C11.2313 17.9865 11.3429 18.0076 11.4539 17.9975C11.5648 17.9875 11.6708 17.9468 11.76 17.88L11.4 17.4ZM13.8 15.6L14.16 15.12C14.0561 15.0421 13.9298 15 13.8 15C13.6702 15 13.5438 15.0421 13.44 15.12L13.8 15.6ZM16.2 17.4L15.84 17.88C15.9291 17.9468 16.0351 17.9875 16.1461 17.9975C16.2571 18.0076 16.3686 17.9865 16.4683 17.9366C16.568 17.8868 16.6518 17.8102 16.7104 17.7154C16.7689 17.6206 16.8 17.5114 16.8 17.4H16.2ZM13.8 13.2C13.0043 13.2 12.2413 12.8839 11.6787 12.3213C11.1161 11.7587 10.8 10.9956 10.8 10.2H9.59998C9.59998 11.3139 10.0425 12.3822 10.8301 13.1698C11.6178 13.9575 12.6861 14.4 13.8 14.4V13.2ZM16.8 10.2C16.8 10.9956 16.4839 11.7587 15.9213 12.3213C15.3587 12.8839 14.5956 13.2 13.8 13.2V14.4C14.9139 14.4 15.9822 13.9575 16.7698 13.1698C17.5575 12.3822 18 11.3139 18 10.2H16.8ZM13.8 7.19999C14.5956 7.19999 15.3587 7.51606 15.9213 8.07867C16.4839 8.64128 16.8 9.40434 16.8 10.2H18C18 9.08608 17.5575 8.01779 16.7698 7.23014C15.9822 6.44249 14.9139 5.99999 13.8 5.99999V7.19999ZM13.8 5.99999C12.6861 5.99999 11.6178 6.44249 10.8301 7.23014C10.0425 8.01779 9.59998 9.08608 9.59998 10.2H10.8C10.8 9.40434 11.1161 8.64128 11.6787 8.07867C12.2413 7.51606 13.0043 7.19999 13.8 7.19999V5.99999ZM10.8 12.6V17.4H12V12.6H10.8ZM11.76 17.88L14.16 16.08L13.44 15.12L11.04 16.92L11.76 17.88ZM13.44 16.08L15.84 17.88L16.56 16.92L14.16 15.12L13.44 16.08ZM16.8 17.4V12.6H15.6V17.4H16.8ZM18 5.99999V1.8H16.8V5.99999H18ZM16.2 0H1.8V1.2H16.2V0ZM0 1.8V16.2H1.2V1.8H0ZM1.8 18H9.59998V16.8H1.8V18ZM0 16.2C0 16.6774 0.189642 17.1352 0.527207 17.4728C0.864772 17.8103 1.32261 18 1.8 18V16.8C1.64087 16.8 1.48826 16.7368 1.37573 16.6242C1.26321 16.5117 1.2 16.3591 1.2 16.2H0ZM1.8 0C1.32261 0 0.864772 0.189642 0.527207 0.527207C0.189642 0.864772 0 1.32261 0 1.8H1.2C1.2 1.64087 1.26321 1.48826 1.37573 1.37573C1.48826 1.26321 1.64087 1.2 1.8 1.2V0ZM18 1.8C18 1.32261 17.8103 0.864772 17.4728 0.527207C17.1352 0.189642 16.6774 0 16.2 0V1.2C16.3591 1.2 16.5117 1.26321 16.6242 1.37573C16.7368 1.48826 16.8 1.64087 16.8 1.8H18ZM3.59999 5.99999H9.59998V4.79999H3.59999V5.99999ZM3.59999 9.59998H7.19999V8.39999H3.59999V9.59998Z" fill="white"/>
</g>
<defs>
<clipPath id="clip0_1228_23828">
<rect width="17.28" height="17.28" fill="white" transform="scale(1.04166)"/>
</clipPath>
</defs>
</svg>
