<svg width="32" height="32" viewBox="0 0 32 32" fill="none" xmlns="http://www.w3.org/2000/svg">
<g clip-path="url(#clip0_1228_23782)">
<path d="M32 16C32 20.2435 30.3143 24.3131 27.3137 27.3137C24.3131 30.3143 20.2435 32 16 32C11.7565 32 7.68687 30.3143 4.68629 27.3137C1.68571 24.3131 0 20.2435 0 16C0 11.7565 1.68571 7.68687 4.68629 4.68629C7.68687 1.68571 11.7565 0 16 0C20.2435 0 24.3131 1.68571 27.3137 4.68629C30.3143 7.68687 32 11.7565 32 16ZM13.292 12.48C13.292 11.098 14.278 9.868 15.964 9.868C17.476 9.868 18.59 10.852 18.59 12.34C18.59 13.734 17.652 14.8 16.786 15.75L10.844 22.336V24H21.532V21.786H14.536V21.632L18.484 17.192L18.676 16.978C20.052 15.452 21.25 14.122 21.25 12.118C21.25 9.586 19.188 7.688 16.024 7.688C12.508 7.688 10.75 10.068 10.75 12.492V12.622H13.292V12.482V12.48Z" fill="#00057D"/>
</g>
<defs>
<clipPath id="clip0_1228_23782">
<rect width="32" height="32" fill="white"/>
</clipPath>
</defs>
</svg>
