<svg width="16" height="16" viewBox="0 0 16 16" fill="none" xmlns="http://www.w3.org/2000/svg">
<g clip-path="url(#clip0_1228_27671)">
<path d="M10.0331 3.33317C10.6843 3.46021 11.2827 3.77868 11.7518 4.24779C12.221 4.71691 12.5394 5.31535 12.6665 5.9665M10.0331 0.666504C11.386 0.816795 12.6475 1.42262 13.6106 2.38451C14.5737 3.3464 15.1811 4.60718 15.3331 5.95984M14.6665 11.2798V13.2798C14.6672 13.4655 14.6292 13.6493 14.5548 13.8194C14.4804 13.9895 14.3713 14.1422 14.2345 14.2677C14.0977 14.3933 13.9362 14.4888 13.7603 14.5483C13.5844 14.6078 13.398 14.6299 13.2131 14.6132C11.1617 14.3903 9.19113 13.6893 7.45979 12.5665C5.84901 11.5429 4.48335 10.1773 3.45979 8.5665C2.33311 6.82731 1.63195 4.84717 1.41313 2.7865C1.39647 2.60215 1.41838 2.41634 1.47746 2.24092C1.53654 2.0655 1.63151 1.9043 1.7563 1.76758C1.8811 1.63087 2.033 1.52164 2.20232 1.44685C2.37164 1.37206 2.55469 1.33334 2.73979 1.33317H4.73979C5.06333 1.32999 5.37699 1.44456 5.6223 1.65553C5.86761 1.8665 6.02784 2.15947 6.07313 2.47984C6.15754 3.11988 6.31409 3.74832 6.53979 4.35317C6.62949 4.59179 6.6489 4.85111 6.59573 5.10042C6.54256 5.34973 6.41903 5.57858 6.23979 5.75984L5.39313 6.6065C6.34216 8.27553 7.7241 9.65747 9.39313 10.6065L10.2398 9.75984C10.4211 9.5806 10.6499 9.45707 10.8992 9.4039C11.1485 9.35073 11.4078 9.37014 11.6465 9.45984C12.2513 9.68554 12.8797 9.84209 13.5198 9.9265C13.8436 9.97219 14.1394 10.1353 14.3508 10.3848C14.5622 10.6344 14.6746 10.9529 14.6665 11.2798Z" stroke="#323232" stroke-linecap="round" stroke-linejoin="round"/>
</g>
<defs>
<clipPath id="clip0_1228_27671">
<rect width="16" height="16" fill="white"/>
</clipPath>
</defs>
</svg>
