<svg width="118" height="122" viewBox="0 0 118 122" fill="none" xmlns="http://www.w3.org/2000/svg">
<g clip-path="url(#clip0_1228_26878)">
<path d="M62.8277 122H54.5463C54.0528 122 53.621 121.63 53.5593 121.152L51.2769 105.931C48.7323 105.499 46.2341 104.82 43.7974 103.941L34.2207 115.97C33.9122 116.356 33.357 116.464 32.9407 116.217L25.7696 112.068C25.3378 111.822 25.1528 111.297 25.3378 110.835L30.9667 96.4927C29.0236 94.8734 27.1884 93.0382 25.5075 91.0334L11.1654 96.6777C10.7028 96.8628 10.1784 96.6777 9.93169 96.2459L5.79871 89.0749C5.55197 88.6431 5.65992 88.1033 6.04546 87.7949L18.0897 78.2027C17.1952 75.7661 16.5321 73.2678 16.0849 70.7386L0.863811 68.4408C0.370321 68.3637 0.015625 67.9473 0.015625 67.4538V59.1725C0.015625 58.679 0.370321 58.2626 0.863811 58.1855L16.0849 55.8877C16.5167 53.3894 17.1952 50.8911 18.0897 48.4391L6.04546 38.8623C5.65992 38.5538 5.55197 38.0141 5.79871 37.5823L9.93169 30.4113C10.1784 29.9794 10.7028 29.8098 11.1654 29.9795L25.5075 35.6083C27.1576 33.6344 28.9927 31.8146 30.9667 30.1491L25.3378 15.807C25.1528 15.3444 25.3378 14.8201 25.7696 14.5733L32.9407 10.4249C33.3725 10.1782 33.9122 10.2861 34.2207 10.6717L43.7974 22.7159C46.2495 21.8214 48.7632 21.1429 51.2769 20.7111L52.6032 11.8283C52.6803 11.2731 53.2046 10.903 53.7444 10.9801C54.2841 11.0572 54.6697 11.5661 54.5925 12.1213L53.1583 21.7135C53.0967 22.1453 52.7574 22.4846 52.3256 22.5617C49.488 22.9935 46.635 23.7646 43.8437 24.8286C43.4273 24.9829 42.9801 24.8595 42.7025 24.5202L33.2028 12.5839L27.5277 15.8687L33.1103 30.072C33.2645 30.4729 33.1411 30.9356 32.8173 31.2132C30.5503 33.0638 28.4684 35.1457 26.6178 37.4126C26.3402 37.7519 25.8776 37.8753 25.4766 37.7211L11.2579 32.1385L7.97315 37.8136L19.9094 47.3133C20.2487 47.5909 20.3721 48.0535 20.2179 48.4545C19.1538 51.2304 18.3827 54.0834 17.9509 56.9209C17.8892 57.3527 17.5499 57.692 17.1027 57.7537L2.00501 60.0207V66.5748L17.1027 68.8418C17.5345 68.9035 17.8738 69.2428 17.9509 69.6746C18.3981 72.5275 19.1538 75.3805 20.2179 78.141C20.3721 78.5574 20.2487 79.02 19.9094 79.2822L7.97315 88.7973L11.2425 94.4724L25.4612 88.8744C25.8622 88.7048 26.3248 88.8281 26.6024 89.1674C28.4838 91.4806 30.5657 93.5626 32.8019 95.3669C33.1411 95.6445 33.2645 96.1071 33.1103 96.5081L27.5277 110.727L33.2028 114.012L42.7025 102.091C42.9801 101.751 43.4428 101.628 43.8437 101.782C46.5733 102.831 49.4263 103.587 52.3256 104.034C52.7574 104.095 53.0967 104.435 53.1583 104.882L55.4099 119.98H61.9641L64.231 104.882C64.2927 104.45 64.632 104.111 65.0638 104.034C67.9785 103.587 70.816 102.831 73.5302 101.782C73.9312 101.628 74.4093 101.751 74.6714 102.091L84.1865 114.012L89.8617 110.727L84.2636 96.5235C84.1094 96.1071 84.2328 95.6445 84.5721 95.3669C86.839 93.5471 88.9209 91.4652 90.787 89.1674C91.0645 88.8281 91.5272 88.7048 91.9282 88.859L106.131 94.4416L109.401 88.7819L97.4799 79.2668C97.1406 78.9892 97.0173 78.5265 97.1715 78.1256C98.2201 75.4114 98.9758 72.5584 99.423 69.6591C99.4847 69.2273 99.824 68.8881 100.271 68.8264L115.369 66.5594V60.0052L100.271 57.7383C99.8394 57.6766 99.5001 57.3373 99.423 56.9055C98.9758 54.0371 98.2201 51.1841 97.1715 48.4391C97.0173 48.0381 97.1406 47.5755 97.4799 47.2979L104.759 41.4839C105.191 41.1447 105.823 41.2063 106.162 41.6382C106.502 42.07 106.44 42.7022 106.008 43.0415L99.2997 48.3928C100.179 50.814 100.857 53.3277 101.289 55.8568L116.51 58.1546C117.004 58.2318 117.358 58.6481 117.358 59.1416V67.423C117.358 67.9165 116.988 68.3329 116.51 68.41L101.289 70.7078C100.857 73.2524 100.179 75.7506 99.2997 78.1718L111.328 87.764C111.714 88.0725 111.822 88.6122 111.575 89.044L107.427 96.1996C107.18 96.6315 106.656 96.8165 106.193 96.6314L91.8665 91.0026C90.2009 92.992 88.3658 94.8271 86.3918 96.4618L92.0361 110.788C92.2212 111.251 92.0361 111.775 91.6043 112.022L84.4333 116.171C84.0015 116.417 83.4617 116.309 83.1533 115.924L73.5611 103.895C71.1553 104.774 68.657 105.437 66.097 105.884L63.7992 121.105C63.7221 121.599 63.3057 121.954 62.8122 121.954L62.8277 122ZM58.6793 85.4971C46.45 85.4971 36.5185 75.5502 36.5185 63.3209C36.5185 52.1402 44.877 42.6714 55.9651 41.3143C56.5202 41.2526 57.0137 41.6382 57.0754 42.1933C57.1371 42.7485 56.7516 43.242 56.1964 43.3037C46.1107 44.5374 38.5079 53.1581 38.5079 63.3209C38.5079 74.4398 47.5603 83.4923 58.6793 83.4923C69.7982 83.4923 78.8507 74.4398 78.8507 63.3209C78.8507 58.8024 77.3702 54.5152 74.5943 50.9065C74.255 50.4747 74.3322 49.8424 74.7794 49.5031C75.2112 49.1639 75.8435 49.241 76.1827 49.6882C79.2516 53.6361 80.8555 58.3551 80.8555 63.3209C80.8555 75.5502 70.9086 85.4971 58.6793 85.4971Z" fill="#DEDEDE"/>
<path d="M63.09 59.8203C62.9358 59.8203 62.7661 59.774 62.6273 59.7123C62.3035 59.5427 62.0876 59.2034 62.0876 58.8178V43.3038H53.5903C53.0351 43.3038 52.5879 42.8565 52.5879 42.3014V1.0024C52.5879 0.447225 53.0351 0 53.5903 0H115.091C115.647 0 116.094 0.447225 116.094 1.0024V42.3014C116.094 42.8565 115.647 43.3038 115.091 43.3038H87.2247L63.6452 59.6352C63.4755 59.7586 63.275 59.8203 63.0746 59.8203H63.09ZM54.5927 41.299H63.09C63.6452 41.299 64.0924 41.7462 64.0924 42.3014V56.9056L86.3611 41.484C86.5308 41.3606 86.7312 41.299 86.9317 41.299H114.105V2.0048H54.5927V41.299Z" fill="#00057D"/>
<path d="M96.462 11.2731H62.7504C62.1953 11.2731 61.748 10.8259 61.748 10.2707C61.748 9.71554 62.1953 9.26831 62.7504 9.26831H96.462C97.0172 9.26831 97.4644 9.71554 97.4644 10.2707C97.4644 10.8259 97.0172 11.2731 96.462 11.2731Z" fill="#00057D"/>
<path d="M105.946 11.2731H100.795C100.24 11.2731 99.793 10.8259 99.793 10.2707C99.793 9.71554 100.24 9.26831 100.795 9.26831H105.946C106.501 9.26831 106.949 9.71554 106.949 10.2707C106.949 10.8259 106.501 11.2731 105.946 11.2731Z" fill="#00057D"/>
<path d="M105.946 16.9328H71.4018C70.8466 16.9328 70.3994 16.4856 70.3994 15.9304C70.3994 15.3752 70.8466 14.928 71.4018 14.928H105.946C106.501 14.928 106.949 15.3752 106.949 15.9304C106.949 16.4856 106.501 16.9328 105.946 16.9328Z" fill="#00057D"/>
<path d="M67.8856 16.9328H62.7348C62.1796 16.9328 61.7324 16.4856 61.7324 15.9304C61.7324 15.3752 62.1796 14.928 62.7348 14.928H67.8856C68.4408 14.928 68.888 15.3752 68.888 15.9304C68.888 16.4856 68.4408 16.9328 67.8856 16.9328Z" fill="#00057D"/>
<path d="M93.5011 22.5771H62.7504C62.1953 22.5771 61.748 22.1298 61.748 21.5747C61.748 21.0195 62.1953 20.5723 62.7504 20.5723H93.5011C94.0562 20.5723 94.5034 21.0195 94.5034 21.5747C94.5034 22.1298 94.0562 22.5771 93.5011 22.5771Z" fill="#00057D"/>
<path d="M105.946 22.5771H100.795C100.24 22.5771 99.793 22.1298 99.793 21.5747C99.793 21.0195 100.24 20.5723 100.795 20.5723H105.946C106.501 20.5723 106.949 21.0195 106.949 21.5747C106.949 22.1298 106.501 22.5771 105.946 22.5771Z" fill="#00057D"/>
<path d="M105.946 28.206H70.8159C70.2607 28.206 69.8135 27.7587 69.8135 27.2036C69.8135 26.6484 70.2607 26.2012 70.8159 26.2012H105.946C106.501 26.2012 106.949 26.6484 106.949 27.2036C106.949 27.7587 106.501 28.206 105.946 28.206Z" fill="#00057D"/>
<path d="M67.8856 28.206H62.7348C62.1796 28.206 61.7324 27.7587 61.7324 27.2036C61.7324 26.6484 62.1796 26.2012 62.7348 26.2012H67.8856C68.4408 26.2012 68.888 26.6484 68.888 27.2036C68.888 27.7587 68.4408 28.206 67.8856 28.206Z" fill="#00057D"/>
<path d="M95.9839 33.8656H62.7504C62.1953 33.8656 61.748 33.4184 61.748 32.8632C61.748 32.3081 62.1953 31.8608 62.7504 31.8608H95.9839C96.5391 31.8608 96.9863 32.3081 96.9863 32.8632C96.9863 33.4184 96.5391 33.8656 95.9839 33.8656Z" fill="#00057D"/>
<path d="M105.946 33.8656H100.795C100.24 33.8656 99.793 33.4184 99.793 32.8632C99.793 32.3081 100.24 31.8608 100.795 31.8608H105.946C106.501 31.8608 106.949 32.3081 106.949 32.8632C106.949 33.4184 106.501 33.8656 105.946 33.8656Z" fill="#00057D"/>
</g>
<defs>
<clipPath id="clip0_1228_26878">
<rect width="117.358" height="122" fill="white"/>
</clipPath>
</defs>
</svg>
