<svg width="24" height="24" viewBox="0 0 24 24" fill="none" xmlns="http://www.w3.org/2000/svg">
<path fill-rule="evenodd" clip-rule="evenodd" d="M2.96387 12.0506C2.96387 16.5428 6.22684 20.278 10.4938 21.0351L10.5454 20.9936C10.5284 20.9903 10.5113 20.9869 10.4943 20.9835V14.5732H8.23535V12.0495H10.4943V10.0305C10.4943 7.7591 11.9501 6.49723 14.0083 6.49723C14.6609 6.49723 15.3637 6.59818 16.0163 6.69913V9.02097H14.8617C13.7573 9.02097 13.5063 9.57619 13.5063 10.2828V12.0495H15.9159L15.5143 14.5732H13.5063V20.9835C13.489 20.987 13.4717 20.9904 13.4544 20.9938L13.5058 21.0351C17.7728 20.278 21.0357 16.5428 21.0357 12.0506C21.0357 7.05355 16.9696 2.96509 11.9998 2.96509C7.03004 2.96509 2.96387 7.05355 2.96387 12.0506Z" fill="white"/>
</svg>
