<svg width="119" height="122" viewBox="0 0 119 122" fill="none" xmlns="http://www.w3.org/2000/svg">
<g clip-path="url(#clip0_1463_21520)">
<path d="M63.6485 122H55.3671C54.8736 122 54.4418 121.63 54.3801 121.152L52.0977 105.931C49.5532 105.499 47.0549 104.821 44.6182 103.942L35.0415 115.97C34.733 116.356 34.1778 116.464 33.7615 116.217L26.5904 112.069C26.1586 111.822 25.9736 111.298 26.1586 110.835L31.7875 96.4929C29.8444 94.8736 28.0092 93.0385 26.3283 91.0337L11.9862 96.678C11.5236 96.863 10.9992 96.678 10.7525 96.2462L6.61951 89.0751C6.37277 88.6433 6.48072 88.1036 6.86626 87.7951L18.9105 78.2029C18.016 75.7663 17.3529 73.268 16.9057 70.7389L1.68461 68.4411C1.19112 68.364 0.836426 67.9476 0.836426 67.4541V59.1727C0.836426 58.6792 1.19112 58.2628 1.68461 58.1857L16.9057 55.8879C17.3375 53.3896 18.016 50.8913 18.9105 48.4393L6.86626 38.8625C6.48072 38.5541 6.37277 38.0143 6.61951 37.5825L10.7525 30.4115C10.9992 29.9797 11.5236 29.8101 11.9862 29.9797L26.3283 35.6086C27.9784 33.6346 29.8135 31.8149 31.7875 30.1493L26.1586 15.8073C25.9736 15.3446 26.1586 14.8203 26.5904 14.5735L33.7615 10.4251C34.1933 10.1784 34.733 10.2864 35.0415 10.6719L44.6182 22.7161C47.0703 21.8217 49.584 21.1431 52.0977 20.7113L53.424 11.8285C53.5011 11.2733 54.0254 10.9032 54.5652 10.9803C55.1049 11.0574 55.4905 11.5663 55.4133 12.1215L53.9791 21.7137C53.9175 22.1455 53.5782 22.4848 53.1464 22.5619C50.3088 22.9937 47.4558 23.7648 44.6645 24.8289C44.2481 24.9831 43.8009 24.8597 43.5233 24.5205L34.0236 12.5842L28.3485 15.869L33.9311 30.0722C34.0853 30.4732 33.9619 30.9358 33.6381 31.2134C31.3711 33.064 29.2892 35.1459 27.4386 37.4129C27.161 37.7522 26.6984 37.8755 26.2974 37.7213L12.0787 32.1387L8.79395 37.8139L20.7302 47.3135C21.0695 47.5911 21.1929 48.0538 21.0387 48.4547C19.9746 51.2306 19.2035 54.0836 18.7717 56.9212C18.71 57.353 18.3707 57.6922 17.9235 57.7539L2.82581 60.0209V66.5751L17.9235 68.842C18.3553 68.9037 18.6946 69.243 18.7717 69.6748C19.2189 72.5278 19.9746 75.3808 21.0387 78.1412C21.1929 78.5576 21.0695 79.0203 20.7302 79.2824L8.79395 88.7975L12.0633 94.4727L26.282 88.8746C26.683 88.705 27.1456 88.8284 27.4232 89.1677C29.3046 91.4809 31.3865 93.5628 33.6227 95.3671C33.9619 95.6447 34.0853 96.1074 33.9311 96.5083L28.3485 110.727L34.0236 114.012L43.5233 102.091C43.8009 101.752 44.2636 101.628 44.6645 101.782C47.3941 102.831 50.2471 103.587 53.1464 104.034C53.5782 104.096 53.9175 104.435 53.9791 104.882L56.2307 119.98H62.7849L65.0518 104.882C65.1135 104.45 65.4528 104.111 65.8846 104.034C68.7993 103.587 71.6368 102.831 74.351 101.782C74.752 101.628 75.2301 101.752 75.4922 102.091L85.0073 114.012L90.6825 110.727L85.0844 96.5237C84.9302 96.1074 85.0536 95.6447 85.3929 95.3671C87.6598 93.5474 89.7417 91.4655 91.6078 89.1677C91.8853 88.8284 92.348 88.705 92.749 88.8592L106.952 94.4418L110.222 88.7821L98.3007 79.267C97.9614 78.9894 97.8381 78.5268 97.9923 78.1258C99.0409 75.4116 99.7966 72.5586 100.244 69.6594C100.306 69.2276 100.645 68.8883 101.092 68.8266L116.19 66.5596V60.0055L101.092 57.7385C100.66 57.6768 100.321 57.3376 100.244 56.9058C99.7966 54.0373 99.0409 51.1843 97.9923 48.4393C97.8381 48.0383 97.9614 47.5757 98.3007 47.2981L105.58 41.4842C106.011 41.1449 106.644 41.2066 106.983 41.6384C107.322 42.0702 107.261 42.7025 106.829 43.0418L100.12 48.393C100.999 50.8142 101.678 53.3279 102.11 55.8571L117.331 58.1549C117.824 58.232 118.179 58.6484 118.179 59.1419V67.4233C118.179 67.9167 117.809 68.3331 117.331 68.4102L102.11 70.708C101.678 73.2526 100.999 75.7509 100.12 78.1721L112.149 87.7643C112.535 88.0727 112.643 88.6125 112.396 89.0443L108.248 96.1999C108.001 96.6317 107.477 96.8167 107.014 96.6317L92.6873 91.0028C91.0217 92.9922 89.1866 94.8274 87.2126 96.4621L92.8569 110.789C93.042 111.251 92.8569 111.776 92.4251 112.022L85.2541 116.171C84.8223 116.418 84.2825 116.31 83.9741 115.924L74.3819 103.895C71.9761 104.774 69.4778 105.437 66.9178 105.885L64.62 121.106C64.5429 121.599 64.1265 121.954 63.633 121.954L63.6485 122ZM59.5001 85.4973C47.2708 85.4973 37.3393 75.5504 37.3393 63.3211C37.3393 52.1405 45.6978 42.6716 56.7859 41.3145C57.341 41.2529 57.8345 41.6384 57.8962 42.1936C57.9579 42.7488 57.5724 43.2422 57.0172 43.3039C46.9315 44.5377 39.3287 53.1583 39.3287 63.3211C39.3287 74.4401 48.3811 83.4925 59.5001 83.4925C70.619 83.4925 79.6715 74.4401 79.6715 63.3211C79.6715 58.8026 78.191 54.5154 75.4151 50.9068C75.0758 50.475 75.153 49.8427 75.6002 49.5034C76.032 49.1641 76.6643 49.2412 77.0035 49.6885C80.0724 53.6364 81.6763 58.3554 81.6763 63.3211C81.6763 75.5504 71.7294 85.4973 59.5001 85.4973Z" fill="#DEDEDE"/>
<path d="M63.9103 59.8203C63.7561 59.8203 63.5864 59.774 63.4476 59.7123C63.1238 59.5427 62.9079 59.2034 62.9079 58.8178V43.3038H54.4106C53.8554 43.3038 53.4082 42.8565 53.4082 42.3014V1.0024C53.4082 0.447225 53.8554 0 54.4106 0H115.912C116.467 0 116.914 0.447225 116.914 1.0024V42.3014C116.914 42.8565 116.467 43.3038 115.912 43.3038H88.045L64.4655 59.6352C64.2958 59.7586 64.0954 59.8203 63.8949 59.8203H63.9103ZM55.413 41.299H63.9103C64.4655 41.299 64.9127 41.7462 64.9127 42.3014V56.9056L87.1814 41.484C87.3511 41.3606 87.5515 41.299 87.752 41.299H114.925V2.0048H55.413V41.299Z" fill="#00057D"/>
<path d="M97.2828 11.2734H63.5712C63.0161 11.2734 62.5688 10.8261 62.5688 10.271C62.5688 9.71578 63.0161 9.26855 63.5712 9.26855H97.2828C97.838 9.26855 98.2852 9.71578 98.2852 10.271C98.2852 10.8261 97.838 11.2734 97.2828 11.2734Z" fill="#00057D"/>
<path d="M106.767 11.2734H101.616C101.061 11.2734 100.614 10.8261 100.614 10.271C100.614 9.71578 101.061 9.26855 101.616 9.26855H106.767C107.322 9.26855 107.769 9.71578 107.769 10.271C107.769 10.8261 107.322 11.2734 106.767 11.2734Z" fill="#00057D"/>
<path d="M106.767 16.933H72.2226C71.6674 16.933 71.2202 16.4858 71.2202 15.9306C71.2202 15.3754 71.6674 14.9282 72.2226 14.9282H106.767C107.322 14.9282 107.769 15.3754 107.769 15.9306C107.769 16.4858 107.322 16.933 106.767 16.933Z" fill="#00057D"/>
<path d="M68.7064 16.933H63.5556C63.0005 16.933 62.5532 16.4858 62.5532 15.9306C62.5532 15.3754 63.0005 14.9282 63.5556 14.9282H68.7064C69.2616 14.9282 69.7088 15.3754 69.7088 15.9306C69.7088 16.4858 69.2616 16.933 68.7064 16.933Z" fill="#00057D"/>
<path d="M94.3219 22.5771H63.5712C63.0161 22.5771 62.5688 22.1298 62.5688 21.5747C62.5688 21.0195 63.0161 20.5723 63.5712 20.5723H94.3219C94.877 20.5723 95.3242 21.0195 95.3242 21.5747C95.3242 22.1298 94.877 22.5771 94.3219 22.5771Z" fill="#00057D"/>
<path d="M106.767 22.5771H101.616C101.061 22.5771 100.614 22.1298 100.614 21.5747C100.614 21.0195 101.061 20.5723 101.616 20.5723H106.767C107.322 20.5723 107.769 21.0195 107.769 21.5747C107.769 22.1298 107.322 22.5771 106.767 22.5771Z" fill="#00057D"/>
<path d="M106.767 28.206H71.6367C71.0815 28.206 70.6343 27.7587 70.6343 27.2036C70.6343 26.6484 71.0815 26.2012 71.6367 26.2012H106.767C107.322 26.2012 107.769 26.6484 107.769 27.2036C107.769 27.7587 107.322 28.206 106.767 28.206Z" fill="#00057D"/>
<path d="M68.7064 28.206H63.5556C63.0005 28.206 62.5532 27.7587 62.5532 27.2036C62.5532 26.6484 63.0005 26.2012 63.5556 26.2012H68.7064C69.2616 26.2012 69.7088 26.6484 69.7088 27.2036C69.7088 27.7587 69.2616 28.206 68.7064 28.206Z" fill="#00057D"/>
<path d="M96.8047 33.8656H63.5712C63.0161 33.8656 62.5688 33.4184 62.5688 32.8632C62.5688 32.3081 63.0161 31.8608 63.5712 31.8608H96.8047C97.3599 31.8608 97.8071 32.3081 97.8071 32.8632C97.8071 33.4184 97.3599 33.8656 96.8047 33.8656Z" fill="#00057D"/>
<path d="M106.767 33.8656H101.616C101.061 33.8656 100.614 33.4184 100.614 32.8632C100.614 32.3081 101.061 31.8608 101.616 31.8608H106.767C107.322 31.8608 107.769 32.3081 107.769 32.8632C107.769 33.4184 107.322 33.8656 106.767 33.8656Z" fill="#00057D"/>
</g>
<defs>
<clipPath id="clip0_1463_21520">
<rect width="117.358" height="122" fill="white" transform="translate(0.820801)"/>
</clipPath>
</defs>
</svg>
