<svg width="75" height="17" viewBox="0 0 75 17" fill="none" xmlns="http://www.w3.org/2000/svg">
<path d="M8.05754 12.3388L10.9515 14.0891C11.4815 14.4099 12.13 13.9357 11.9905 13.336L11.2235 10.0446L13.7827 7.82704C14.2499 7.42258 13.9989 6.65551 13.3852 6.60669L10.0171 6.32079L8.69909 3.21066C8.462 2.64582 7.65309 2.64582 7.41599 3.21066L6.09803 6.31381L2.72989 6.59972C2.11623 6.64854 1.86519 7.41561 2.3324 7.82006L4.89163 10.0376L4.12456 13.329C3.98509 13.9287 4.63362 14.4029 5.16359 14.0822L8.05754 12.3388Z" fill="#F2C94C"/>
<path d="M22.7789 12.3388L25.6728 14.0891C26.2028 14.4099 26.8513 13.9357 26.7118 13.336L25.9448 10.0446L28.504 7.82704C28.9712 7.42258 28.7202 6.65551 28.1065 6.60669L24.7384 6.32079L23.4204 3.21066C23.1833 2.64582 22.3744 2.64582 22.1373 3.21066L20.8193 6.31381L17.4512 6.59972C16.8376 6.64854 16.5865 7.41561 17.0537 7.82006L19.613 10.0376L18.8459 13.329C18.7064 13.9287 19.3549 14.4029 19.8849 14.0822L22.7789 12.3388Z" fill="#F2C94C"/>
<path d="M37.4997 12.3388L40.3936 14.0891C40.9236 14.4099 41.5721 13.9357 41.4327 13.336L40.6656 10.0446L43.2248 7.82704C43.692 7.42258 43.441 6.65551 42.8274 6.60669L39.4592 6.32079L38.1412 3.21066C37.9041 2.64582 37.0952 2.64582 36.8581 3.21066L35.5402 6.31381L32.172 6.59972C31.5584 6.64854 31.3073 7.41561 31.7746 7.82006L34.3338 10.0376L33.5667 13.329C33.4272 13.9287 34.0758 14.4029 34.6057 14.0822L37.4997 12.3388Z" fill="#F2C94C"/>
<path d="M52.221 12.3388L55.115 14.0891C55.6449 14.4099 56.2935 13.9357 56.154 13.336L55.3869 10.0446L57.9462 7.82704C58.4134 7.42258 58.1623 6.65551 57.5487 6.60669L54.1805 6.32079L52.8626 3.21066C52.6255 2.64582 51.8166 2.64582 51.5795 3.21066L50.2615 6.31381L46.8934 6.59972C46.2797 6.64854 46.0287 7.41561 46.4959 7.82006L49.0551 10.0376L48.288 13.329C48.1486 13.9287 48.7971 14.4029 49.3271 14.0822L52.221 12.3388Z" fill="#F2C94C"/>
<path d="M66.9423 12.3388L69.8363 14.0891C70.3663 14.4099 71.0148 13.9357 70.8753 13.336L70.1082 10.0446L72.6675 7.82704C73.1347 7.42258 72.8836 6.65551 72.27 6.60669L68.9019 6.32079L67.5839 3.21066C67.3468 2.64582 66.5379 2.64582 66.3008 3.21066L64.9828 6.31381L61.6147 6.59972C61.001 6.64854 60.75 7.41561 61.2172 7.82006L63.7764 10.0376L63.0094 13.329C62.8699 13.9287 63.5184 14.4029 64.0484 14.0822L66.9423 12.3388Z" fill="#E6E6E6"/>
</svg>
