<svg width="32" height="32" viewBox="0 0 32 32" fill="none" xmlns="http://www.w3.org/2000/svg">
<g clip-path="url(#clip0_1228_23804)">
<path d="M32 16C32 20.2435 30.3143 24.3131 27.3137 27.3137C24.3131 30.3143 20.2435 32 16 32C11.7565 32 7.68687 30.3143 4.68629 27.3137C1.68571 24.3131 0 20.2435 0 16C0 11.7565 1.68571 7.68687 4.68629 4.68629C7.68687 1.68571 11.7565 0 16 0C20.2435 0 24.3131 1.68571 27.3137 4.68629C30.3143 7.68687 32 11.7565 32 16ZM15.836 16.828C17.676 16.828 18.906 17.908 18.918 19.464C18.942 21.046 17.688 22.184 15.742 22.172C14.02 22.16 12.778 21.234 12.662 20.04H10.208C10.302 22.394 12.308 24.328 15.716 24.328C19.022 24.328 21.624 22.454 21.576 19.536C21.53 16.98 19.514 15.844 18.108 15.704V15.564C19.302 15.364 21.118 14.086 21.072 11.812C21.012 9.458 18.986 7.664 15.798 7.688C12.448 7.7 10.618 9.656 10.548 11.928H13.044C13.116 10.816 14.158 9.82 15.74 9.82C17.31 9.82 18.436 10.792 18.436 12.21C18.448 13.64 17.31 14.684 15.752 14.684H14.076V16.828H15.834H15.836Z" fill="#00057D"/>
</g>
<defs>
<clipPath id="clip0_1228_23804">
<rect width="32" height="32" fill="white"/>
</clipPath>
</defs>
</svg>
