<svg width="16" height="16" viewBox="0 0 16 16" fill="none" xmlns="http://www.w3.org/2000/svg">
<path d="M12.6667 7.33301H3.33333C2.59695 7.33301 2 7.92996 2 8.66634V13.333C2 14.0694 2.59695 14.6663 3.33333 14.6663H12.6667C13.403 14.6663 14 14.0694 14 13.333V8.66634C14 7.92996 13.403 7.33301 12.6667 7.33301Z" stroke="#323232" stroke-linecap="round" stroke-linejoin="round"/>
<path d="M4.6665 7.33301V4.66634C4.6665 3.78229 5.01769 2.93444 5.64281 2.30932C6.26794 1.6842 7.11578 1.33301 7.99984 1.33301C8.88389 1.33301 9.73174 1.6842 10.3569 2.30932C10.982 2.93444 11.3332 3.78229 11.3332 4.66634V7.33301" stroke="#323232" stroke-linecap="round" stroke-linejoin="round"/>
</svg>
