<svg width="25" height="25" viewBox="0 0 25 25" fill="none" xmlns="http://www.w3.org/2000/svg">
<g clip-path="url(#clip0_1228_22421)">
<path d="M12.4355 22.3696C17.6127 22.3696 21.8096 18.1727 21.8096 12.9956C21.8096 7.81839 17.6127 3.62147 12.4355 3.62147C7.25834 3.62147 3.06142 7.81839 3.06142 12.9956C3.06142 18.1727 7.25834 22.3696 12.4355 22.3696Z" fill="white"/>
<path d="M13.1603 11.7164C13.3145 11.5442 13.4381 11.3679 13.5991 11.2193C13.828 10.9957 14.0992 10.8201 14.3968 10.7028C14.6944 10.5855 15.0125 10.5288 15.3323 10.536C15.6999 10.5319 16.0663 10.5787 16.4211 10.6749C17.2349 10.9096 17.7085 11.4706 17.9334 12.265C18.0842 12.8602 18.1519 13.4733 18.1348 14.087C18.1348 15.3814 18.1348 16.6771 18.1348 17.9755C18.1348 18.0978 18.1015 18.1283 17.9821 18.1283C17.3155 18.1227 16.6484 18.1227 15.9809 18.1283C15.8642 18.1283 15.842 18.0922 15.842 17.9894C15.8392 16.7433 15.8378 15.505 15.8378 14.2745C15.8447 13.9651 15.8087 13.6561 15.7309 13.3566C15.5712 12.8011 15.1754 12.5233 14.5963 12.5525C13.8047 12.5941 13.3936 12.9858 13.2922 13.7898C13.2689 13.982 13.2573 14.1754 13.2575 14.369C13.2575 15.5661 13.2575 16.7645 13.2575 17.963C13.2575 18.0825 13.2284 18.1186 13.1061 18.1172C12.434 18.1116 11.7618 18.1116 11.0897 18.1172C10.9827 18.1172 10.9508 18.088 10.9508 17.9783C10.9508 15.6045 10.9508 13.232 10.9508 10.861C10.9508 10.7429 10.9897 10.7221 11.1008 10.7221C11.7382 10.7221 12.377 10.7221 13.0145 10.7221C13.1325 10.7221 13.1631 10.7582 13.1534 10.8693C13.1561 11.1498 13.1603 11.4331 13.1603 11.7164Z" fill="#0077B5"/>
<path d="M9.50522 14.4275C9.50522 15.6024 9.50522 16.7759 9.50522 17.9494C9.50522 18.0799 9.47327 18.1188 9.33857 18.1174C8.67196 18.1174 8.00536 18.1174 7.33876 18.1174C7.23183 18.1174 7.19989 18.091 7.19989 17.9785C7.19989 15.6019 7.19989 13.2257 7.19989 10.85C7.19989 10.7514 7.2235 10.7112 7.32765 10.7112C8.00397 10.7112 8.68169 10.7112 9.35801 10.7112C9.48716 10.7112 9.50522 10.7598 9.50522 10.8709C9.50383 12.061 9.50522 13.2443 9.50522 14.4275Z" fill="#0077B5"/>
<path d="M9.68997 8.36264C9.69162 8.62679 9.61476 8.88548 9.46915 9.10588C9.32354 9.32628 9.11574 9.49845 8.87212 9.60055C8.62849 9.70266 8.36003 9.73009 8.10079 9.67937C7.84155 9.62865 7.60322 9.50206 7.41605 9.31566C7.22887 9.12927 7.10129 8.89147 7.04948 8.63245C6.99767 8.37342 7.02398 8.10485 7.12506 7.8608C7.22615 7.61675 7.39745 7.40823 7.61724 7.2617C7.83703 7.11517 8.09539 7.03723 8.35954 7.03778C8.71099 7.03922 9.0477 7.1791 9.29673 7.42709C9.54576 7.67508 9.68705 8.01121 9.68997 8.36264Z" fill="#0077B5"/>
</g>
<defs>
<clipPath id="clip0_1228_22421">
<rect width="18.07" height="18.07" fill="white" transform="translate(3.06142 3.62147) scale(1.03753)"/>
</clipPath>
</defs>
</svg>
