<svg width="12" height="12" viewBox="0 0 12 12" fill="none" xmlns="http://www.w3.org/2000/svg">
<path d="M0.476699 12C0.351992 12 0.23014 11.9505 0.139703 11.861C0.0273715 11.7487 -0.0221308 11.5868 0.00928406 11.4316L0.682323 8.06601C0.701363 7.97271 0.745153 7.88797 0.812743 7.82228L8.21713 0.41701C8.77308 -0.139004 9.6803 -0.139004 10.2362 0.41701L11.5823 1.76325C12.1392 2.32022 12.1392 3.22564 11.5823 3.78261L4.17794 11.1879C4.11225 11.2545 4.02753 11.2993 3.93424 11.3183L0.56904 11.9914C0.538577 11.9971 0.507162 12 0.476699 12ZM1.58859 8.39257L1.08405 10.9165L3.60771 10.4119L10.9102 3.10854C11.0959 2.92288 11.0959 2.62107 10.9102 2.43542L9.56416 1.08918C9.37853 0.903523 9.07675 0.903523 8.89112 1.08918L1.58859 8.39257Z" fill="#000054"/>
</svg>
