<svg width="20" height="20" viewBox="0 0 20 20" fill="none" xmlns="http://www.w3.org/2000/svg">
<circle cx="10" cy="10.0005" r="9.5" fill="white" stroke="#000054"/>
<path d="M4.43861 15.8267C4.31391 15.8267 4.19205 15.7772 4.10162 15.6877C3.98929 15.5753 3.93978 15.4135 3.9712 15.2583L4.64424 11.8927C4.66328 11.7994 4.70707 11.7146 4.77466 11.6489L12.179 4.24367C12.735 3.68766 13.6422 3.68766 14.1982 4.24367L15.5442 5.58991C16.1011 6.14688 16.1011 7.0523 15.5442 7.60927L8.13985 15.0145C8.07417 15.0812 7.98944 15.1259 7.89615 15.145L4.53095 15.8181C4.50049 15.8238 4.46908 15.8267 4.43861 15.8267ZM5.55051 12.2192L5.04597 14.7432L7.56963 14.2386L14.8722 6.9352C15.0578 6.74954 15.0578 6.44773 14.8722 6.26208L13.5261 4.91584C13.3404 4.73018 13.0387 4.73018 12.853 4.91584L5.55051 12.2192Z" fill="#000054"/>
</svg>
