<svg width="20" height="20" viewBox="0 0 20 20" fill="none" xmlns="http://www.w3.org/2000/svg">
<path d="M8.94374 14.0403C8.7555 14.166 8.53664 14.2383 8.31054 14.2493C8.08444 14.2603 7.85959 14.2097 7.66 14.1029C7.46041 13.9961 7.29359 13.8371 7.17734 13.6428C7.0611 13.4486 6.9998 13.2264 7 13M8.94374 14.0403L7.5 7.00049M8.94374 14.0403L13.4434 11.0405C13.4434 11.0405 13.4434 11.0405 13.4434 11.0405C13.6146 10.9264 13.755 10.7717 13.8521 10.5903C13.9492 10.4089 14 10.2063 14 10.0005C14 9.7947 13.9492 9.5921 13.8521 9.41066C13.755 9.22923 13.6146 9.07458 13.4434 8.96044C13.4434 8.96044 13.4434 8.96043 13.4434 8.96043L8.94374 5.96069C8.7555 5.83495 8.53664 5.76271 8.31054 5.75168C8.08444 5.74065 7.85958 5.79124 7.66 5.89805C7.46041 6.00487 7.29359 6.16389 7.17734 6.35813C7.0611 6.55238 6.9998 6.77456 7 7.00093M8.94374 14.0403L7.5 7.00049M7 13L7.5 13.0005H7V13ZM7 13V7.00093M7 7.00093L7.5 7.00049M7 7.00093V7.00049H7.5M4.61098 2.30939C6.13205 1.29305 7.92034 0.750546 9.74971 0.750488C12.2021 0.753397 14.5533 1.72891 16.2874 3.46305C18.0216 5.19726 18.9972 7.54853 19 10.0011C18.9999 11.8303 18.4574 13.6185 17.4411 15.1395C16.4247 16.6607 14.98 17.8463 13.2898 18.5464C11.5996 19.2465 9.73974 19.4297 7.94542 19.0728C6.15109 18.7158 4.5029 17.8349 3.20927 16.5412C1.91563 15.2476 1.03465 13.5994 0.677741 11.8051C0.320827 10.0107 0.504008 8.15088 1.20412 6.46067C1.90423 4.77045 3.08982 3.3258 4.61098 2.30939Z" fill="white" stroke="#000054"/>
</svg>
