<svg width="17" height="17" viewBox="0 0 17 17" fill="none" xmlns="http://www.w3.org/2000/svg">
<path d="M5.31261 13.2814C6.48622 13.2814 7.43762 12.33 7.43762 11.1564C7.43762 9.98275 6.48622 9.03135 5.31261 9.03135C4.13901 9.03135 3.18761 9.98275 3.18761 11.1564C3.18761 12.33 4.13901 13.2814 5.31261 13.2814Z" stroke="#6B6A6A" stroke-width="1.03374" stroke-linecap="round" stroke-linejoin="round"/>
<path d="M2.12491 14.8748C2.49609 14.38 2.97737 13.9784 3.53063 13.7018C4.0839 13.4252 4.69395 13.2812 5.31251 13.2812C5.93106 13.2811 6.54112 13.4251 7.0944 13.7017C7.64767 13.9783 8.12897 14.3798 8.50018 14.8746" stroke="#6B6A6A" stroke-width="1.03374" stroke-linecap="round" stroke-linejoin="round"/>
<path d="M5.31261 6.37491C6.48622 6.37491 7.43762 5.42352 7.43762 4.24991C7.43762 3.0763 6.48622 2.12491 5.31261 2.12491C4.13901 2.12491 3.18761 3.0763 3.18761 4.24991C3.18761 5.42352 4.13901 6.37491 5.31261 6.37491Z" stroke="#6B6A6A" stroke-width="1.03374" stroke-linecap="round" stroke-linejoin="round"/>
<path d="M2.12491 7.96858C2.49609 7.47379 2.97737 7.07219 3.53063 6.79559C4.0839 6.51899 4.69395 6.37498 5.31251 6.37497C5.93106 6.37495 6.54112 6.51893 7.0944 6.79551C7.64767 7.07208 8.12897 7.47365 8.50018 7.96843" stroke="#6B6A6A" stroke-width="1.03374" stroke-linecap="round" stroke-linejoin="round"/>
<path d="M11.6876 13.2814C12.8612 13.2814 13.8126 12.33 13.8126 11.1564C13.8126 9.98275 12.8612 9.03135 11.6876 9.03135C10.514 9.03135 9.56258 9.98275 9.56258 11.1564C9.56258 12.33 10.514 13.2814 11.6876 13.2814Z" stroke="#6B6A6A" stroke-width="1.03374" stroke-linecap="round" stroke-linejoin="round"/>
<path d="M8.49987 14.8748C8.87106 14.38 9.35234 13.9784 9.9056 13.7018C10.4589 13.4252 11.0689 13.2812 11.6875 13.2812C12.306 13.2811 12.9161 13.4251 13.4694 13.7017C14.0226 13.9783 14.5039 14.3798 14.8752 14.8746" stroke="#6B6A6A" stroke-width="1.03374" stroke-linecap="round" stroke-linejoin="round"/>
<path d="M11.6876 6.37491C12.8612 6.37491 13.8126 5.42352 13.8126 4.24991C13.8126 3.0763 12.8612 2.12491 11.6876 2.12491C10.514 2.12491 9.56258 3.0763 9.56258 4.24991C9.56258 5.42352 10.514 6.37491 11.6876 6.37491Z" stroke="#6B6A6A" stroke-width="1.03374" stroke-linecap="round" stroke-linejoin="round"/>
<path d="M8.49987 7.96858C8.87106 7.47379 9.35234 7.07219 9.9056 6.79559C10.4589 6.51899 11.0689 6.37498 11.6875 6.37497C12.306 6.37495 12.9161 6.51893 13.4694 6.79551C14.0226 7.07208 14.5039 7.47365 14.8752 7.96843" stroke="#6B6A6A" stroke-width="1.03374" stroke-linecap="round" stroke-linejoin="round"/>
</svg>
