<svg width="20" height="20" viewBox="0 0 20 20" fill="none" xmlns="http://www.w3.org/2000/svg">
<path d="M9.17307 14.1434C8.98 14.2723 8.75553 14.3464 8.52363 14.3578C8.29173 14.3691 8.06111 14.3172 7.85641 14.2076C7.6517 14.0981 7.4806 13.935 7.36138 13.7357C7.24216 13.5365 7.17929 13.3086 7.17949 13.0765M9.17307 14.1434L7.69231 6.92308M9.17307 14.1434L13.7881 11.0667C13.7881 11.0667 13.7881 11.0667 13.7881 11.0667C13.9637 10.9496 14.1077 10.791 14.2073 10.605C14.3069 10.4189 14.359 10.2111 14.359 10C14.359 9.78894 14.3069 9.58114 14.2073 9.39505C14.1077 9.20897 13.9637 9.05035 13.7881 8.93328C13.7881 8.93328 13.7881 8.93327 13.7881 8.93327L9.17307 5.85661C8.98 5.72765 8.75553 5.65356 8.52363 5.64225C8.29173 5.63093 8.06111 5.68282 7.85641 5.79237C7.6517 5.90193 7.4806 6.06503 7.36138 6.26425C7.24215 6.46348 7.17929 6.69135 7.17949 6.92353M9.17307 14.1434L7.69231 6.92308M7.17949 13.0765L7.69231 13.0769H7.17949V13.0765ZM7.17949 13.0765V6.92353M7.17949 6.92353L7.69231 6.92308M7.17949 6.92353V6.92308H7.69231M4.72921 2.1117C6.28929 1.06929 8.12342 0.51288 9.9997 0.512821C12.515 0.515804 14.9265 1.51633 16.7051 3.29494C18.4837 5.07361 19.4843 7.48517 19.4872 10.0006C19.4871 11.8768 18.9307 13.7108 17.8883 15.2708C16.8458 16.831 15.3641 18.0469 13.6306 18.765C11.897 19.4831 9.98948 19.671 8.14915 19.3049C6.30882 18.9388 4.61836 18.0353 3.29156 16.7084C1.96475 15.3816 1.06118 13.6912 0.695119 11.8509C0.329054 10.0105 0.516931 8.10297 1.23499 6.36941C1.95306 4.63586 3.16905 3.15416 4.72921 2.1117Z" fill="white" stroke="#000054"/>
</svg>
