<svg width="18" height="20" viewBox="0 0 18 20" fill="none" xmlns="http://www.w3.org/2000/svg">
<path d="M15.75 10.625C15.7526 11.6149 15.5213 12.5914 15.075 13.475C14.5458 14.5338 13.7323 15.4244 12.7256 16.047C11.7189 16.6696 10.5587 16.9996 9.375 17C8.3851 17.0026 7.40859 16.7713 6.525 16.325L2.25 17.75L3.675 13.475C3.2287 12.5914 2.99742 11.6149 3 10.625C3.00046 9.44134 3.33046 8.28116 3.95304 7.27443C4.57562 6.26771 5.46619 5.4542 6.525 4.92502C7.40859 4.47872 8.3851 4.24744 9.375 4.25002H9.75C11.3133 4.33627 12.7898 4.99609 13.8969 6.10317C15.0039 7.21024 15.6638 8.68676 15.75 10.25V10.625Z" stroke="#0031DE" stroke-linecap="round" stroke-linejoin="round"/>
</svg>
