<svg width="18" height="22" viewBox="0 0 18 22" fill="none" xmlns="http://www.w3.org/2000/svg">
<path d="M1.5 4.25H6C6.79565 4.25 7.55871 4.56607 8.12132 5.12868C8.68393 5.69129 9 6.45435 9 7.25V17.75C9 17.1533 8.76295 16.581 8.34099 16.159C7.91903 15.7371 7.34674 15.5 6.75 15.5H1.5V4.25Z" stroke="#6B6A6A" stroke-linecap="round" stroke-linejoin="round"/>
<path d="M16.5 4.25H12C11.2044 4.25 10.4413 4.56607 9.87868 5.12868C9.31607 5.69129 9 6.45435 9 7.25V17.75C9 17.1533 9.23705 16.581 9.65901 16.159C10.081 15.7371 10.6533 15.5 11.25 15.5H16.5V4.25Z" stroke="#6B6A6A" stroke-linecap="round" stroke-linejoin="round"/>
</svg>
