<svg width="16" height="16" viewBox="0 0 16 16" fill="none" xmlns="http://www.w3.org/2000/svg">
<path d="M7.99998 12.6666C10.5773 12.6666 12.6666 10.5772 12.6666 7.99992C12.6666 5.42259 10.5773 3.33325 7.99998 3.33325C5.42265 3.33325 3.33331 5.42259 3.33331 7.99992C3.33331 10.5772 5.42265 12.6666 7.99998 12.6666Z" stroke="#323232" stroke-linecap="round" stroke-linejoin="round"/>
<path d="M8 6V8L9 9" stroke="#323232" stroke-linecap="round" stroke-linejoin="round"/>
<path d="M11.0067 11.5668L10.7734 14.1201C10.7433 14.4525 10.5897 14.7616 10.3428 14.9862C10.096 15.2109 9.77381 15.3348 9.44003 15.3334H6.55336C6.21958 15.3348 5.89743 15.2109 5.65056 14.9862C5.4037 14.7616 5.25007 14.4525 5.22003 14.1201L4.98669 11.5668M4.99336 4.43343L5.22669 1.88009C5.25663 1.54881 5.40931 1.24068 5.65477 1.01619C5.90023 0.791706 6.22073 0.667072 6.55336 0.666759H9.45336C9.78714 0.665405 10.1093 0.789291 10.3562 1.01394C10.603 1.23859 10.7567 1.54766 10.7867 1.88009L11.02 4.43343" stroke="#323232" stroke-linecap="round" stroke-linejoin="round"/>
</svg>
